M48
METRIC,LZ,000.000
;FILE_FORMAT=3:3
;TYPE=PLATED
;Layer: PTH_Through
;EasyEDA v6.5.20, 2022-10-25 13:43:38
;140ee39b9ffe45fd8fe92b6b1275b3e1,2b06a704b0b744f5a7d1a44ad6c904bc,10
;Gerber Generator version 0.2
;Holesize 1 = 0.889 mm
T01C0.889
;Holesize 2 = 1.101 mm
T02C1.101
%
G05
G90
T01
X021844Y039751
X021844Y037211
X021844Y034671
X021844Y032131
X021844Y029591
X021844Y027051
X021844Y024511
X021844Y021971
X021844Y019431
X021844Y016891
X-001016Y004191
X-001016Y006731
X-001016Y009271
X-001016Y011811
X-001016Y014351
X-001016Y016891
X-001016Y019431
X-001016Y021971
X-001016Y024511
X-001016Y027051
X004064Y019812
X004064Y022352
X006604Y019812
X006604Y022352
X009144Y019812
X009144Y022352
X011684Y019812
X011684Y022352
X019304Y016891
X016764Y016891
X014224Y016891
X011684Y016891
X009144Y016891
X006604Y016891
X004064Y016891
X001524Y016891
X006604Y009271
X009144Y009271
X011684Y009271
X014224Y009271
X016764Y009271
X019304Y009271
T02
X001524Y004191
X001524Y006731
M30
