G04 Layer: TopSilkscreenLayer*
G04 EasyEDA v6.5.20, 2022-10-25 13:43:38*
G04 140ee39b9ffe45fd8fe92b6b1275b3e1,2b06a704b0b744f5a7d1a44ad6c904bc,10*
G04 Gerber Generator version 0.2*
G04 Scale: 100 percent, Rotated: No, Reflected: No *
G04 Dimensions in millimeters *
G04 leading zeros omitted , absolute positions ,4 integer and 5 decimal *
%FSLAX45Y45*%
%MOMM*%

%ADD10C,0.1524*%
%ADD11C,0.2032*%
%ADD12C,0.2030*%

%LPD*%
D10*
X2022602Y4038600D02*
G01*
X1947418Y4038600D01*
X2022602Y4038600D02*
G01*
X2022602Y4013454D01*
X2019045Y4002786D01*
X2011934Y3995673D01*
X2004568Y3992118D01*
X1993900Y3988562D01*
X1976120Y3988562D01*
X1965197Y3992118D01*
X1958086Y3995673D01*
X1950974Y4002786D01*
X1947418Y4013454D01*
X1947418Y4038600D01*
X2022602Y3943350D02*
G01*
X2019045Y3954018D01*
X2008124Y3961384D01*
X1990343Y3964939D01*
X1979675Y3964939D01*
X1961641Y3961384D01*
X1950974Y3954018D01*
X1947418Y3943350D01*
X1947418Y3936237D01*
X1950974Y3925570D01*
X1961641Y3918457D01*
X1979675Y3914647D01*
X1990343Y3914647D01*
X2008124Y3918457D01*
X2019045Y3925570D01*
X2022602Y3936237D01*
X2022602Y3943350D01*
X2022602Y3780789D02*
G01*
X1947418Y3780789D01*
X2022602Y3780789D02*
G01*
X2022602Y3755897D01*
X2019045Y3745229D01*
X2011934Y3737863D01*
X2004568Y3734307D01*
X1993900Y3730752D01*
X1976120Y3730752D01*
X1965197Y3734307D01*
X1958086Y3737863D01*
X1950974Y3745229D01*
X1947418Y3755897D01*
X1947418Y3780789D01*
X2008124Y3707129D02*
G01*
X2011934Y3700018D01*
X2022602Y3689350D01*
X1947418Y3689350D01*
X2022602Y3555492D02*
G01*
X1947418Y3555492D01*
X2022602Y3555492D02*
G01*
X2022602Y3530345D01*
X2019045Y3519678D01*
X2011934Y3512565D01*
X2004568Y3509010D01*
X1993900Y3505200D01*
X1976120Y3505200D01*
X1965197Y3509010D01*
X1958086Y3512565D01*
X1950974Y3519678D01*
X1947418Y3530345D01*
X1947418Y3555492D01*
X2004568Y3478021D02*
G01*
X2008124Y3478021D01*
X2015490Y3474465D01*
X2019045Y3470910D01*
X2022602Y3463797D01*
X2022602Y3449573D01*
X2019045Y3442207D01*
X2015490Y3438652D01*
X2008124Y3435095D01*
X2001011Y3435095D01*
X1993900Y3438652D01*
X1983231Y3446018D01*
X1947418Y3481578D01*
X1947418Y3431539D01*
X2022602Y3297681D02*
G01*
X1947418Y3297681D01*
X2022602Y3297681D02*
G01*
X2022602Y3272789D01*
X2019045Y3261868D01*
X2011934Y3254755D01*
X2004568Y3251200D01*
X1993900Y3247644D01*
X1976120Y3247644D01*
X1965197Y3251200D01*
X1958086Y3254755D01*
X1950974Y3261868D01*
X1947418Y3272789D01*
X1947418Y3297681D01*
X2022602Y3216910D02*
G01*
X2022602Y3177539D01*
X1993900Y3198876D01*
X1993900Y3188207D01*
X1990343Y3181095D01*
X1986788Y3177539D01*
X1976120Y3173984D01*
X1968754Y3173984D01*
X1958086Y3177539D01*
X1950974Y3184652D01*
X1947418Y3195320D01*
X1947418Y3205987D01*
X1950974Y3216910D01*
X1954529Y3220465D01*
X1961641Y3224021D01*
X2022602Y3040126D02*
G01*
X1947418Y3040126D01*
X2022602Y3040126D02*
G01*
X2022602Y3014979D01*
X2019045Y3004312D01*
X2011934Y2997200D01*
X2004568Y2993389D01*
X1993900Y2989834D01*
X1976120Y2989834D01*
X1965197Y2993389D01*
X1958086Y2997200D01*
X1950974Y3004312D01*
X1947418Y3014979D01*
X1947418Y3040126D01*
X2022602Y2930397D02*
G01*
X1972563Y2966212D01*
X1972563Y2912618D01*
X2022602Y2930397D02*
G01*
X1947418Y2930397D01*
X2022602Y2826765D02*
G01*
X2022602Y2787395D01*
X1993900Y2808731D01*
X1993900Y2798063D01*
X1990343Y2790952D01*
X1986788Y2787395D01*
X1976120Y2783839D01*
X1968754Y2783839D01*
X1958086Y2787395D01*
X1950974Y2794507D01*
X1947418Y2805176D01*
X1947418Y2816097D01*
X1950974Y2826765D01*
X1954529Y2830321D01*
X1961641Y2833878D01*
X2022602Y2760218D02*
G01*
X1947418Y2731515D01*
X2022602Y2702813D02*
G01*
X1947418Y2731515D01*
X2022602Y2672079D02*
G01*
X2022602Y2632710D01*
X1993900Y2654300D01*
X1993900Y2643378D01*
X1990343Y2636265D01*
X1986788Y2632710D01*
X1976120Y2629154D01*
X1968754Y2629154D01*
X1958086Y2632710D01*
X1950974Y2639821D01*
X1947418Y2650744D01*
X1947418Y2661412D01*
X1950974Y2672079D01*
X1954529Y2675636D01*
X1961641Y2679192D01*
X2004568Y2496820D02*
G01*
X2011934Y2500376D01*
X2019045Y2507487D01*
X2022602Y2514600D01*
X2022602Y2528823D01*
X2019045Y2536189D01*
X2011934Y2543302D01*
X2004568Y2546857D01*
X1993900Y2550413D01*
X1976120Y2550413D01*
X1965197Y2546857D01*
X1958086Y2543302D01*
X1950974Y2536189D01*
X1947418Y2528823D01*
X1947418Y2514600D01*
X1950974Y2507487D01*
X1958086Y2500376D01*
X1965197Y2496820D01*
X1976120Y2496820D01*
X1976120Y2514600D02*
G01*
X1976120Y2496820D01*
X2022602Y2473197D02*
G01*
X1947418Y2473197D01*
X2022602Y2473197D02*
G01*
X1947418Y2422905D01*
X2022602Y2422905D02*
G01*
X1947418Y2422905D01*
X2022602Y2399284D02*
G01*
X1947418Y2399284D01*
X2022602Y2399284D02*
G01*
X2022602Y2374392D01*
X2019045Y2363470D01*
X2011934Y2356357D01*
X2004568Y2352802D01*
X1993900Y2349245D01*
X1976120Y2349245D01*
X1965197Y2352802D01*
X1958086Y2356357D01*
X1950974Y2363470D01*
X1947418Y2374392D01*
X1947418Y2399284D01*
X2022602Y2270505D02*
G01*
X1947418Y2270505D01*
X2022602Y2270505D02*
G01*
X2022602Y2245360D01*
X2019045Y2234692D01*
X2011934Y2227579D01*
X2004568Y2224023D01*
X1993900Y2220468D01*
X1976120Y2220468D01*
X1965197Y2224023D01*
X1958086Y2227579D01*
X1950974Y2234692D01*
X1947418Y2245360D01*
X1947418Y2270505D01*
X2022602Y2153920D02*
G01*
X2022602Y2189734D01*
X1990343Y2193289D01*
X1993900Y2189734D01*
X1997456Y2178812D01*
X1997456Y2168144D01*
X1993900Y2157476D01*
X1986788Y2150363D01*
X1976120Y2146807D01*
X1968754Y2146807D01*
X1958086Y2150363D01*
X1950974Y2157476D01*
X1947418Y2168144D01*
X1947418Y2178812D01*
X1950974Y2189734D01*
X1954529Y2193289D01*
X1961641Y2196845D01*
X2022602Y2012950D02*
G01*
X1947418Y2012950D01*
X2022602Y2012950D02*
G01*
X2022602Y1987804D01*
X2019045Y1977136D01*
X2011934Y1969770D01*
X2004568Y1966213D01*
X1993900Y1962657D01*
X1976120Y1962657D01*
X1965197Y1966213D01*
X1958086Y1969770D01*
X1950974Y1977136D01*
X1947418Y1987804D01*
X1947418Y2012950D01*
X2011934Y1896110D02*
G01*
X2019045Y1899665D01*
X2022602Y1910587D01*
X2022602Y1917700D01*
X2019045Y1928368D01*
X2008124Y1935479D01*
X1990343Y1939036D01*
X1972563Y1939036D01*
X1958086Y1935479D01*
X1950974Y1928368D01*
X1947418Y1917700D01*
X1947418Y1914144D01*
X1950974Y1903221D01*
X1958086Y1896110D01*
X1968754Y1892554D01*
X1972563Y1892554D01*
X1983231Y1896110D01*
X1990343Y1903221D01*
X1993900Y1914144D01*
X1993900Y1917700D01*
X1990343Y1928368D01*
X1983231Y1935479D01*
X1972563Y1939036D01*
X314197Y317500D02*
G01*
X389381Y346202D01*
X314197Y374650D02*
G01*
X389381Y346202D01*
X314197Y398271D02*
G01*
X317754Y402081D01*
X314197Y405637D01*
X310642Y402081D01*
X314197Y398271D01*
X339344Y402081D02*
G01*
X389381Y402081D01*
X339344Y429260D02*
G01*
X389381Y429260D01*
X353568Y429260D02*
G01*
X342900Y439928D01*
X339344Y447039D01*
X339344Y457707D01*
X342900Y465073D01*
X353568Y468629D01*
X389381Y468629D01*
X332231Y600963D02*
G01*
X324865Y597407D01*
X317754Y590295D01*
X314197Y583184D01*
X314197Y568705D01*
X317754Y561594D01*
X324865Y554481D01*
X332231Y550926D01*
X342900Y547370D01*
X360679Y547370D01*
X371602Y550926D01*
X378713Y554481D01*
X385826Y561594D01*
X389381Y568705D01*
X389381Y583184D01*
X385826Y590295D01*
X378713Y597407D01*
X371602Y600963D01*
X360679Y600963D01*
X360679Y583184D02*
G01*
X360679Y600963D01*
X314197Y624586D02*
G01*
X389381Y624586D01*
X314197Y624586D02*
G01*
X389381Y674623D01*
X314197Y674623D02*
G01*
X389381Y674623D01*
X314197Y698245D02*
G01*
X389381Y698245D01*
X314197Y698245D02*
G01*
X314197Y723392D01*
X317754Y734060D01*
X324865Y741171D01*
X332231Y744728D01*
X342900Y748537D01*
X360679Y748537D01*
X371602Y744728D01*
X378713Y741171D01*
X385826Y734060D01*
X389381Y723392D01*
X389381Y698245D01*
D11*
X292100Y4472178D02*
G01*
X292100Y4278376D01*
X292100Y4472178D02*
G01*
X412242Y4472178D01*
X292100Y4379976D02*
G01*
X366013Y4379976D01*
X473202Y4472178D02*
G01*
X473202Y4278376D01*
X473202Y4472178D02*
G01*
X556260Y4472178D01*
X583945Y4463034D01*
X593089Y4453889D01*
X602487Y4435347D01*
X602487Y4416805D01*
X593089Y4398263D01*
X583945Y4389120D01*
X556260Y4379976D01*
X473202Y4379976D01*
X537718Y4379976D02*
G01*
X602487Y4278376D01*
X663447Y4472178D02*
G01*
X663447Y4278376D01*
X663447Y4472178D02*
G01*
X783589Y4472178D01*
X663447Y4379976D02*
G01*
X737362Y4379976D01*
X663447Y4278376D02*
G01*
X783589Y4278376D01*
X844550Y4472178D02*
G01*
X844550Y4278376D01*
X844550Y4472178D02*
G01*
X909065Y4472178D01*
X936752Y4463034D01*
X955294Y4444492D01*
X964437Y4425950D01*
X973836Y4398263D01*
X973836Y4352289D01*
X964437Y4324350D01*
X955294Y4306062D01*
X936752Y4287520D01*
X909065Y4278376D01*
X844550Y4278376D01*
X1034795Y4472178D02*
G01*
X1080770Y4278376D01*
X1126997Y4472178D02*
G01*
X1080770Y4278376D01*
X1126997Y4472178D02*
G01*
X1173226Y4278376D01*
X1219454Y4472178D02*
G01*
X1173226Y4278376D01*
X1354328Y4472178D02*
G01*
X1280413Y4278376D01*
X1354328Y4472178D02*
G01*
X1428242Y4278376D01*
X1308100Y4342892D02*
G01*
X1400555Y4342892D01*
X1489202Y4472178D02*
G01*
X1489202Y4278376D01*
X1489202Y4472178D02*
G01*
X1572260Y4472178D01*
X1599945Y4463034D01*
X1609089Y4453889D01*
X1618487Y4435347D01*
X1618487Y4416805D01*
X1609089Y4398263D01*
X1599945Y4389120D01*
X1572260Y4379976D01*
X1489202Y4379976D01*
X1553718Y4379976D02*
G01*
X1618487Y4278376D01*
X1679447Y4472178D02*
G01*
X1679447Y4278376D01*
X1679447Y4472178D02*
G01*
X1743963Y4472178D01*
X1771650Y4463034D01*
X1790192Y4444492D01*
X1799589Y4425950D01*
X1808734Y4398263D01*
X1808734Y4352289D01*
X1799589Y4324350D01*
X1790192Y4306062D01*
X1771650Y4287520D01*
X1743963Y4278376D01*
X1679447Y4278376D01*
X876300Y4140962D02*
G01*
X931671Y4011676D01*
X987044Y4140962D02*
G01*
X931671Y4011676D01*
X1048004Y4168647D02*
G01*
X1066545Y4177792D01*
X1094231Y4205478D01*
X1094231Y4011676D01*
D10*
X406400Y2502915D02*
G01*
X406400Y2393950D01*
X406400Y2502915D02*
G01*
X479044Y2393950D01*
X479044Y2502915D02*
G01*
X479044Y2393950D01*
X513334Y2502915D02*
G01*
X513334Y2393950D01*
X513334Y2502915D02*
G01*
X560070Y2502915D01*
X575818Y2497836D01*
X580897Y2492502D01*
X586231Y2482087D01*
X586231Y2471673D01*
X580897Y2461260D01*
X575818Y2456179D01*
X560070Y2451100D01*
X513334Y2451100D01*
X549910Y2451100D02*
G01*
X586231Y2393950D01*
X620521Y2502915D02*
G01*
X620521Y2393950D01*
X620521Y2502915D02*
G01*
X688086Y2502915D01*
X620521Y2451100D02*
G01*
X661923Y2451100D01*
X727455Y2477007D02*
G01*
X727455Y2482087D01*
X732789Y2492502D01*
X737870Y2497836D01*
X748284Y2502915D01*
X769112Y2502915D01*
X779526Y2497836D01*
X784605Y2492502D01*
X789939Y2482087D01*
X789939Y2471673D01*
X784605Y2461260D01*
X774192Y2445765D01*
X722376Y2393950D01*
X795020Y2393950D01*
X881379Y2502915D02*
G01*
X829310Y2430271D01*
X907287Y2430271D01*
X881379Y2502915D02*
G01*
X881379Y2393950D01*
X941578Y2502915D02*
G01*
X941578Y2393950D01*
X941578Y2393950D02*
G01*
X1003807Y2393950D01*
X1069339Y2502915D02*
G01*
X1053845Y2497836D01*
X1043431Y2482087D01*
X1038097Y2456179D01*
X1038097Y2440686D01*
X1043431Y2414523D01*
X1053845Y2399029D01*
X1069339Y2393950D01*
X1079754Y2393950D01*
X1095247Y2399029D01*
X1105662Y2414523D01*
X1110995Y2440686D01*
X1110995Y2456179D01*
X1105662Y2482087D01*
X1095247Y2497836D01*
X1079754Y2502915D01*
X1069339Y2502915D01*
X1145286Y2482087D02*
G01*
X1155700Y2487421D01*
X1171194Y2502915D01*
X1171194Y2393950D01*
X685800Y1537715D02*
G01*
X685800Y1428750D01*
X685800Y1537715D02*
G01*
X727455Y1428750D01*
X768857Y1537715D02*
G01*
X727455Y1428750D01*
X768857Y1537715D02*
G01*
X768857Y1428750D01*
X803147Y1537715D02*
G01*
X803147Y1428750D01*
X803147Y1537715D02*
G01*
X849884Y1537715D01*
X865631Y1532636D01*
X870712Y1527302D01*
X876045Y1516887D01*
X876045Y1501394D01*
X870712Y1490979D01*
X865631Y1485900D01*
X849884Y1480565D01*
X803147Y1480565D01*
X910336Y1537715D02*
G01*
X910336Y1459737D01*
X915415Y1444244D01*
X925829Y1433829D01*
X941323Y1428750D01*
X951737Y1428750D01*
X967486Y1433829D01*
X977900Y1444244D01*
X982979Y1459737D01*
X982979Y1537715D01*
X1079500Y1522221D02*
G01*
X1074420Y1532636D01*
X1058926Y1537715D01*
X1048512Y1537715D01*
X1032763Y1532636D01*
X1022350Y1516887D01*
X1017270Y1490979D01*
X1017270Y1465071D01*
X1022350Y1444244D01*
X1032763Y1433829D01*
X1048512Y1428750D01*
X1053592Y1428750D01*
X1069339Y1433829D01*
X1079500Y1444244D01*
X1084834Y1459737D01*
X1084834Y1465071D01*
X1079500Y1480565D01*
X1069339Y1490979D01*
X1053592Y1496060D01*
X1048512Y1496060D01*
X1032763Y1490979D01*
X1022350Y1480565D01*
X1017270Y1465071D01*
X1150365Y1537715D02*
G01*
X1134618Y1532636D01*
X1124204Y1516887D01*
X1119123Y1490979D01*
X1119123Y1475486D01*
X1124204Y1449323D01*
X1134618Y1433829D01*
X1150365Y1428750D01*
X1160779Y1428750D01*
X1176273Y1433829D01*
X1186687Y1449323D01*
X1191768Y1475486D01*
X1191768Y1490979D01*
X1186687Y1516887D01*
X1176273Y1532636D01*
X1160779Y1537715D01*
X1150365Y1537715D01*
X1288542Y1537715D02*
G01*
X1236471Y1537715D01*
X1231392Y1490979D01*
X1236471Y1496060D01*
X1252220Y1501394D01*
X1267713Y1501394D01*
X1283207Y1496060D01*
X1293621Y1485900D01*
X1298955Y1470152D01*
X1298955Y1459737D01*
X1293621Y1444244D01*
X1283207Y1433829D01*
X1267713Y1428750D01*
X1252220Y1428750D01*
X1236471Y1433829D01*
X1231392Y1438910D01*
X1226057Y1449323D01*
X1364234Y1537715D02*
G01*
X1348739Y1532636D01*
X1338326Y1516887D01*
X1333245Y1490979D01*
X1333245Y1475486D01*
X1338326Y1449323D01*
X1348739Y1433829D01*
X1364234Y1428750D01*
X1374647Y1428750D01*
X1390395Y1433829D01*
X1400810Y1449323D01*
X1405889Y1475486D01*
X1405889Y1490979D01*
X1400810Y1516887D01*
X1390395Y1532636D01*
X1374647Y1537715D01*
X1364234Y1537715D01*
X939800Y1194815D02*
G01*
X939800Y1085850D01*
X939800Y1194815D02*
G01*
X986536Y1194815D01*
X1002029Y1189736D01*
X1007363Y1184402D01*
X1012444Y1173987D01*
X1012444Y1158494D01*
X1007363Y1148079D01*
X1002029Y1143000D01*
X986536Y1137665D01*
X939800Y1137665D01*
X1124712Y1168907D02*
G01*
X1119631Y1179321D01*
X1109218Y1189736D01*
X1098804Y1194815D01*
X1077976Y1194815D01*
X1067562Y1189736D01*
X1057147Y1179321D01*
X1052068Y1168907D01*
X1046734Y1153160D01*
X1046734Y1127252D01*
X1052068Y1111757D01*
X1057147Y1101344D01*
X1067562Y1090929D01*
X1077976Y1085850D01*
X1098804Y1085850D01*
X1109218Y1090929D01*
X1119631Y1101344D01*
X1124712Y1111757D01*
X1200657Y1194815D02*
G01*
X1159002Y1085850D01*
X1200657Y1194815D02*
G01*
X1242060Y1085850D01*
X1174750Y1122171D02*
G01*
X1226565Y1122171D01*
X1343913Y1158494D02*
G01*
X1338834Y1143000D01*
X1328420Y1132586D01*
X1312926Y1127252D01*
X1307592Y1127252D01*
X1292097Y1132586D01*
X1281684Y1143000D01*
X1276350Y1158494D01*
X1276350Y1163573D01*
X1281684Y1179321D01*
X1292097Y1189736D01*
X1307592Y1194815D01*
X1312926Y1194815D01*
X1328420Y1189736D01*
X1338834Y1179321D01*
X1343913Y1158494D01*
X1343913Y1132586D01*
X1338834Y1106423D01*
X1328420Y1090929D01*
X1312926Y1085850D01*
X1302512Y1085850D01*
X1286763Y1090929D01*
X1281684Y1101344D01*
X1440687Y1179321D02*
G01*
X1435354Y1189736D01*
X1419860Y1194815D01*
X1409445Y1194815D01*
X1393952Y1189736D01*
X1383537Y1173987D01*
X1378204Y1148079D01*
X1378204Y1122171D01*
X1383537Y1101344D01*
X1393952Y1090929D01*
X1409445Y1085850D01*
X1414779Y1085850D01*
X1430273Y1090929D01*
X1440687Y1101344D01*
X1445768Y1116837D01*
X1445768Y1122171D01*
X1440687Y1137665D01*
X1430273Y1148079D01*
X1414779Y1153160D01*
X1409445Y1153160D01*
X1393952Y1148079D01*
X1383537Y1137665D01*
X1378204Y1122171D01*
X1506220Y1194815D02*
G01*
X1490471Y1189736D01*
X1485392Y1179321D01*
X1485392Y1168907D01*
X1490471Y1158494D01*
X1500886Y1153160D01*
X1521713Y1148079D01*
X1537207Y1143000D01*
X1547621Y1132586D01*
X1552955Y1122171D01*
X1552955Y1106423D01*
X1547621Y1096010D01*
X1542542Y1090929D01*
X1526794Y1085850D01*
X1506220Y1085850D01*
X1490471Y1090929D01*
X1485392Y1096010D01*
X1480057Y1106423D01*
X1480057Y1122171D01*
X1485392Y1132586D01*
X1495805Y1143000D01*
X1511300Y1148079D01*
X1532128Y1153160D01*
X1542542Y1158494D01*
X1547621Y1168907D01*
X1547621Y1179321D01*
X1542542Y1189736D01*
X1526794Y1194815D01*
X1506220Y1194815D01*
X1649476Y1194815D02*
G01*
X1597660Y1194815D01*
X1592326Y1148079D01*
X1597660Y1153160D01*
X1613154Y1158494D01*
X1628647Y1158494D01*
X1644395Y1153160D01*
X1654810Y1143000D01*
X1659889Y1127252D01*
X1659889Y1116837D01*
X1654810Y1101344D01*
X1644395Y1090929D01*
X1628647Y1085850D01*
X1613154Y1085850D01*
X1597660Y1090929D01*
X1592326Y1096010D01*
X1587245Y1106423D01*
D11*
X2057400Y1752600D02*
G01*
X2057400Y1562100D01*
X2311400Y1562100D01*
X2311400Y4102100D01*
X2057400Y4102100D01*
D12*
X2057400Y4102100D02*
G01*
X2057400Y1752600D01*
D11*
X25400Y2641600D02*
G01*
X25400Y2832100D01*
X-228600Y2832100D01*
X-228600Y292100D01*
X25400Y292100D01*
D12*
X25400Y292100D02*
G01*
X25400Y2641600D01*
X25400Y800100D02*
G01*
X25400Y482600D01*
D11*
X25400Y800100D02*
G01*
X279400Y800100D01*
X279400Y292100D01*
X25400Y292100D01*
X25400Y482600D01*
X279400Y2362200D02*
G01*
X279400Y1854200D01*
X1295400Y1854200D01*
X1295400Y2362200D01*
X279400Y2362200D01*
X25400Y1562100D02*
G01*
X25400Y1816100D01*
X2057400Y1816100D01*
X2057400Y1562100D01*
X1866900Y1562100D01*
D12*
X25400Y1562100D02*
G01*
X1866900Y1562100D01*
D11*
X1866900Y800100D02*
G01*
X2057400Y800100D01*
X2057400Y1054100D01*
X533400Y1054100D01*
X533400Y800100D01*
D12*
X533400Y800100D02*
G01*
X1866900Y800100D01*
M02*
