G04 Layer: TopLayer*
G04 EasyEDA v6.5.20, 2022-10-25 13:43:38*
G04 140ee39b9ffe45fd8fe92b6b1275b3e1,2b06a704b0b744f5a7d1a44ad6c904bc,10*
G04 Gerber Generator version 0.2*
G04 Scale: 100 percent, Rotated: No, Reflected: No *
G04 Dimensions in millimeters *
G04 leading zeros omitted , absolute positions ,4 integer and 5 decimal *
%FSLAX45Y45*%
%MOMM*%

%ADD10C,0.2540*%
%ADD11C,1.5748*%
%ADD12R,1.5748X1.5748*%
%ADD13R,1.5748X1.7000*%
%ADD14C,1.7000*%

%LPD*%
D10*
X-101600Y419100D02*
G01*
X152400Y419100D01*
X-101600Y673100D02*
G01*
X152400Y673100D01*
X1168400Y1689100D02*
G01*
X1168400Y927100D01*
X1422400Y1689100D02*
G01*
X1422400Y927100D01*
X152400Y419100D02*
G01*
X660400Y927100D01*
X1676400Y1689100D02*
G01*
X1930400Y1435100D01*
X1930400Y927100D01*
X914400Y927100D02*
G01*
X1231900Y609600D01*
X2057400Y609600D01*
X2184400Y736600D01*
X2184400Y1435100D01*
X1930400Y1689100D01*
X406400Y2235200D02*
G01*
X546100Y2095500D01*
X546100Y1282700D01*
X901700Y927100D01*
X914400Y927100D01*
X914400Y2235200D02*
G01*
X787400Y2108200D01*
X787400Y1943100D01*
X889000Y1841500D01*
X2019300Y1841500D01*
X2171700Y1689100D01*
X2184400Y1689100D01*
X660400Y1981200D02*
G01*
X660400Y2082800D01*
X787400Y2209800D01*
X787400Y2501900D01*
X1244600Y2959100D01*
X2184400Y2959100D01*
X660400Y2235200D02*
G01*
X660400Y2540000D01*
X1333500Y3213100D01*
X2184400Y3213100D01*
X914400Y1981200D02*
G01*
X1041400Y2108200D01*
X2057400Y2108200D01*
X2146300Y2197100D01*
X2184400Y2197100D01*
X1168400Y1981200D02*
G01*
X2057400Y1981200D01*
X2095500Y1943100D01*
X2184400Y1943100D01*
X406400Y1981200D02*
G01*
X228600Y1981200D01*
X25400Y1778000D01*
X25400Y850900D01*
X152400Y723900D01*
X152400Y673100D01*
D11*
G01*
X2184400Y3975100D03*
G01*
X2184400Y3721100D03*
G01*
X2184400Y3467100D03*
G01*
X2184400Y3213100D03*
G01*
X2184400Y2959100D03*
G01*
X2184400Y2705100D03*
G01*
X2184400Y2451100D03*
G01*
X2184400Y2197100D03*
G01*
X2184400Y1943100D03*
D12*
G01*
X2184400Y1689100D03*
D11*
G01*
X-101600Y419100D03*
G01*
X-101600Y673100D03*
G01*
X-101600Y927100D03*
G01*
X-101600Y1181100D03*
G01*
X-101600Y1435100D03*
G01*
X-101600Y1689100D03*
G01*
X-101600Y1943100D03*
G01*
X-101600Y2197100D03*
G01*
X-101600Y2451100D03*
D12*
G01*
X-101600Y2705100D03*
D13*
G01*
X152400Y419100D03*
D14*
G01*
X152400Y673100D03*
D12*
G01*
X406400Y1981200D03*
D11*
G01*
X406400Y2235200D03*
G01*
X660400Y1981200D03*
G01*
X660400Y2235200D03*
G01*
X914400Y1981200D03*
G01*
X914400Y2235200D03*
G01*
X1168400Y1981200D03*
G01*
X1168400Y2235200D03*
D12*
G01*
X1930400Y1689100D03*
D11*
G01*
X1676400Y1689100D03*
G01*
X1422400Y1689100D03*
G01*
X1168400Y1689100D03*
G01*
X914400Y1689100D03*
G01*
X660400Y1689100D03*
G01*
X406400Y1689100D03*
G01*
X152400Y1689100D03*
G01*
X660400Y927100D03*
G01*
X914400Y927100D03*
G01*
X1168400Y927100D03*
G01*
X1422400Y927100D03*
G01*
X1676400Y927100D03*
D12*
G01*
X1930400Y927100D03*
M02*
