G04 Layer: TopSolderMaskLayer*
G04 EasyEDA v6.5.20, 2022-10-25 13:43:38*
G04 140ee39b9ffe45fd8fe92b6b1275b3e1,2b06a704b0b744f5a7d1a44ad6c904bc,10*
G04 Gerber Generator version 0.2*
G04 Scale: 100 percent, Rotated: No, Reflected: No *
G04 Dimensions in millimeters *
G04 leading zeros omitted , absolute positions ,4 integer and 5 decimal *
%FSLAX45Y45*%
%MOMM*%

%AMMACRO1*1,1,$1,$2,$3*1,1,$1,$4,$5*1,1,$1,0-$2,0-$3*1,1,$1,0-$4,0-$5*20,1,$1,$2,$3,$4,$5,0*20,1,$1,$4,$5,0-$2,0-$3,0*20,1,$1,0-$2,0-$3,0-$4,0-$5,0*20,1,$1,0-$4,0-$5,$2,$3,0*4,1,4,$2,$3,$4,$5,0-$2,0-$3,0-$4,0-$5,$2,$3,0*%
%ADD10C,1.6764*%
%ADD11R,1.6764X1.6764*%
%ADD12MACRO1,0.1016X0.7874X0.7874X0.7874X-0.7874*%
%ADD13MACRO1,0.1016X-0.7874X-0.85X-0.7874X0.85*%
%ADD14C,1.8016*%
%ADD15MACRO1,0.1016X-0.7874X0.7874X0.7874X0.7874*%
%ADD16MACRO1,0.1016X0.7874X-0.7874X-0.7874X-0.7874*%

%LPD*%
D10*
G01*
X2184400Y3975100D03*
G01*
X2184400Y3721100D03*
G01*
X2184400Y3467100D03*
G01*
X2184400Y3213100D03*
G01*
X2184400Y2959100D03*
G01*
X2184400Y2705100D03*
G01*
X2184400Y2451100D03*
G01*
X2184400Y2197100D03*
G01*
X2184400Y1943100D03*
D11*
G01*
X2184400Y1689100D03*
D10*
G01*
X-101600Y419100D03*
G01*
X-101600Y673100D03*
G01*
X-101600Y927100D03*
G01*
X-101600Y1181100D03*
G01*
X-101600Y1435100D03*
G01*
X-101600Y1689100D03*
G01*
X-101600Y1943100D03*
G01*
X-101600Y2197100D03*
G01*
X-101600Y2451100D03*
D12*
G01*
X-101600Y2705100D03*
D13*
G01*
X152400Y419101D03*
D14*
G01*
X152400Y673100D03*
D15*
G01*
X406400Y1981200D03*
D10*
G01*
X406400Y2235200D03*
G01*
X660400Y1981200D03*
G01*
X660400Y2235200D03*
G01*
X914400Y1981200D03*
G01*
X914400Y2235200D03*
G01*
X1168400Y1981200D03*
G01*
X1168400Y2235200D03*
D16*
G01*
X1930400Y1689100D03*
D10*
G01*
X1676400Y1689100D03*
G01*
X1422400Y1689100D03*
G01*
X1168400Y1689100D03*
G01*
X914400Y1689100D03*
G01*
X660400Y1689100D03*
G01*
X406400Y1689100D03*
G01*
X152400Y1689100D03*
G01*
X660400Y927100D03*
G01*
X914400Y927100D03*
G01*
X1168400Y927100D03*
G01*
X1422400Y927100D03*
G01*
X1676400Y927100D03*
D16*
G01*
X1930400Y927100D03*
M02*
