M48
METRIC,LZ,000.000
;FILE_FORMAT=3:3
;TYPE=PLATED
;Layer: PTH_Through
;EasyEDA v6.5.20, 2022-10-25 13:43:38
;7ab05346c3184fb1b1d82cee0c39fc96,2b06a704b0b744f5a7d1a44ad6c904bc,10
;Gerber Generator version 0.2
;Holesize 1 = 0.889 mm
T01C0.889
;Holesize 2 = 0.914 mm
T02C0.914
;Holesize 3 = 0.915 mm
T03C0.915
;Holesize 4 = 1.600 mm
T04C1.600
%
G05
G90
T01
X007620Y017653
X005080Y017653
X002540Y017653
X007620Y015113
X005080Y015113
X002540Y015113
X027940Y007366
X007620Y025146
X027940Y030226
X027940Y032766
X027940Y035306
X002540Y027686
X005080Y027686
X002540Y022606
X005080Y022606
X002540Y020066
X005080Y020066
X017780Y046736
X017780Y049276
X020320Y046736
X020320Y049276
X022860Y046736
X022860Y049276
X025400Y046736
X025400Y049276
X014097Y046736
X014097Y049276
X014097Y051816
X014097Y054356
X014097Y056896
X014097Y059436
X014097Y061976
X014097Y064516
X027940Y017526
X027940Y020066
X027940Y022606
X027940Y025146
X027940Y027686
T02
X027940Y040386
X027940Y037846
T03
X007620Y027686
X007620Y022606
X007620Y020066
X010160Y040386
X010160Y037846
X010160Y035306
X010160Y032766
X010160Y030226
X010160Y027686
X010160Y025146
X010160Y022606
X010160Y020066
X010160Y017526
X010160Y014986
X010160Y012446
X010160Y009906
X010160Y007366
X010160Y004572
X025400Y040386
X025400Y037846
X025400Y035306
X025400Y032766
X025400Y030226
X025400Y027686
X025400Y025146
X025400Y022606
X025400Y020066
X025400Y017526
X025400Y014986
X025400Y012446
X025400Y009906
X025400Y007366
X025400Y004826
T04
X004318Y004826
X004318Y009906
M30
