G04 Layer: BottomSolderMaskLayer*
G04 EasyEDA v6.5.20, 2022-10-25 13:43:38*
G04 7ab05346c3184fb1b1d82cee0c39fc96,2b06a704b0b744f5a7d1a44ad6c904bc,10*
G04 Gerber Generator version 0.2*
G04 Scale: 100 percent, Rotated: No, Reflected: No *
G04 Dimensions in millimeters *
G04 leading zeros omitted , absolute positions ,4 integer and 5 decimal *
%FSLAX45Y45*%
%MOMM*%

%AMMACRO1*1,1,$1,$2,$3*1,1,$1,$4,$5*1,1,$1,0-$2,0-$3*1,1,$1,0-$4,0-$5*20,1,$1,$2,$3,$4,$5,0*20,1,$1,$4,$5,0-$2,0-$3,0*20,1,$1,0-$2,0-$3,0-$4,0-$5,0*20,1,$1,0-$4,0-$5,$2,$3,0*4,1,4,$2,$3,$4,$5,0-$2,0-$3,0-$4,0-$5,$2,$3,0*%
%ADD10C,1.6764*%
%ADD11MACRO1,0.1016X-0.7874X0.7874X0.7874X0.7874*%
%ADD12MACRO1,0.1016X0.7874X0.7874X0.7874X-0.7874*%
%ADD13MACRO1,0.1016X0.7874X0.85X0.7874X-0.85*%
%ADD14C,1.8016*%
%ADD15C,2.6016*%
%ADD16R,1.6764X1.6764*%
%ADD17MACRO1,0.2032X0.889X0.889X0.889X-0.889*%
%ADD18C,1.9812*%

%LPD*%
D10*
G01*
X762000Y1765300D03*
G01*
X508000Y1765300D03*
D11*
G01*
X254000Y1765300D03*
D10*
G01*
X762000Y1511300D03*
G01*
X508000Y1511300D03*
D11*
G01*
X254000Y1511300D03*
D12*
G01*
X2794000Y736600D03*
G01*
X762000Y2514600D03*
D13*
G01*
X2794000Y4038598D03*
D14*
G01*
X2794000Y3784600D03*
D10*
G01*
X2794000Y3022600D03*
G01*
X2794000Y3276600D03*
D12*
G01*
X2794000Y3530600D03*
D15*
G01*
X431800Y482600D03*
G01*
X431800Y990600D03*
D11*
G01*
X254000Y2768600D03*
D10*
G01*
X508000Y2768600D03*
G01*
X762000Y2768600D03*
D11*
G01*
X254000Y2260600D03*
D10*
G01*
X508000Y2260600D03*
G01*
X762000Y2260600D03*
D11*
G01*
X254000Y2006600D03*
D10*
G01*
X508000Y2006600D03*
G01*
X762000Y2006600D03*
D11*
G01*
X1778000Y4673600D03*
D10*
G01*
X1778000Y4927600D03*
G01*
X2032000Y4673600D03*
G01*
X2032000Y4927600D03*
G01*
X2286000Y4673600D03*
G01*
X2286000Y4927600D03*
G01*
X2540000Y4673600D03*
G01*
X2540000Y4927600D03*
D16*
G01*
X1409700Y4673600D03*
D10*
G01*
X1409700Y4927600D03*
G01*
X1409700Y5181600D03*
G01*
X1409700Y5435600D03*
G01*
X1409700Y5689600D03*
G01*
X1409700Y5943600D03*
G01*
X1409700Y6197600D03*
G01*
X1409700Y6451600D03*
G01*
X2794000Y1752600D03*
G01*
X2794000Y2006600D03*
G01*
X2794000Y2260600D03*
G01*
X2794000Y2514600D03*
D12*
G01*
X2794000Y2768600D03*
D17*
G01*
X1016000Y4038600D03*
D18*
G01*
X1016000Y3784600D03*
G01*
X1016000Y3530600D03*
G01*
X1016000Y3276600D03*
G01*
X1016000Y3022600D03*
G01*
X1016000Y2768600D03*
G01*
X1016000Y2514600D03*
G01*
X1016000Y2260600D03*
G01*
X1016000Y2006600D03*
G01*
X1016000Y1752600D03*
G01*
X1016000Y1498600D03*
G01*
X1016000Y1244600D03*
G01*
X1016000Y990600D03*
G01*
X1016000Y736600D03*
G01*
X1016000Y457200D03*
G01*
X2540000Y4038600D03*
G01*
X2540000Y3784600D03*
G01*
X2540000Y3530600D03*
G01*
X2540000Y3276600D03*
G01*
X2540000Y3022600D03*
G01*
X2540000Y2768600D03*
G01*
X2540000Y2514600D03*
G01*
X2540000Y2260600D03*
G01*
X2540000Y2006600D03*
G01*
X2540000Y1752600D03*
G01*
X2540000Y1498600D03*
G01*
X2540000Y1244600D03*
G01*
X2540000Y990600D03*
G01*
X2540000Y736600D03*
G01*
X2540000Y482600D03*
M02*
