G04 Layer: TopSilkscreenLayer*
G04 EasyEDA v6.5.20, 2022-10-25 13:43:38*
G04 7ab05346c3184fb1b1d82cee0c39fc96,2b06a704b0b744f5a7d1a44ad6c904bc,10*
G04 Gerber Generator version 0.2*
G04 Scale: 100 percent, Rotated: No, Reflected: No *
G04 Dimensions in millimeters *
G04 leading zeros omitted , absolute positions ,4 integer and 5 decimal *
%FSLAX45Y45*%
%MOMM*%

%ADD10C,0.2032*%
%ADD11C,0.1524*%
%ADD12C,0.2540*%
%ADD13C,0.2030*%

%LPD*%
D10*
X1200658Y4093971D02*
G01*
X1200658Y3996944D01*
X1168400Y4093971D02*
G01*
X1233170Y4093971D01*
X1263650Y4093971D02*
G01*
X1328165Y3996944D01*
X1328165Y4093971D02*
G01*
X1263650Y3996944D01*
X1358645Y4093971D02*
G01*
X1358645Y3996944D01*
X1358645Y4093971D02*
G01*
X1390904Y4093971D01*
X1404874Y4089400D01*
X1414018Y4080255D01*
X1418590Y4070857D01*
X1423415Y4057142D01*
X1423415Y4034028D01*
X1418590Y4020057D01*
X1414018Y4010913D01*
X1404874Y4001770D01*
X1390904Y3996944D01*
X1358645Y3996944D01*
X2215641Y3816857D02*
G01*
X2211070Y3826255D01*
X2201672Y3835400D01*
X2192527Y3839971D01*
X2173986Y3839971D01*
X2164841Y3835400D01*
X2155443Y3826255D01*
X2150872Y3816857D01*
X2146300Y3803142D01*
X2146300Y3780028D01*
X2150872Y3766057D01*
X2155443Y3756913D01*
X2164841Y3747770D01*
X2173986Y3742944D01*
X2192527Y3742944D01*
X2201672Y3747770D01*
X2211070Y3756913D01*
X2215641Y3766057D01*
X2215641Y3780028D01*
X2192527Y3780028D02*
G01*
X2215641Y3780028D01*
X2246122Y3839971D02*
G01*
X2246122Y3742944D01*
X2246122Y3839971D02*
G01*
X2310638Y3742944D01*
X2310638Y3839971D02*
G01*
X2310638Y3742944D01*
X2341118Y3839971D02*
G01*
X2341118Y3742944D01*
X2341118Y3839971D02*
G01*
X2373629Y3839971D01*
X2387345Y3835400D01*
X2396490Y3826255D01*
X2401315Y3816857D01*
X2405888Y3803142D01*
X2405888Y3780028D01*
X2401315Y3766057D01*
X2396490Y3756913D01*
X2387345Y3747770D01*
X2373629Y3742944D01*
X2341118Y3742944D01*
X2303272Y3331971D02*
G01*
X2257043Y3331971D01*
X2252472Y3290570D01*
X2257043Y3295142D01*
X2271013Y3299713D01*
X2284729Y3299713D01*
X2298700Y3295142D01*
X2307843Y3285744D01*
X2312670Y3272028D01*
X2312670Y3262629D01*
X2307843Y3248913D01*
X2298700Y3239770D01*
X2284729Y3234944D01*
X2271013Y3234944D01*
X2257043Y3239770D01*
X2252472Y3244342D01*
X2247900Y3253486D01*
X2343150Y3331971D02*
G01*
X2379979Y3234944D01*
X2416809Y3331971D02*
G01*
X2379979Y3234944D01*
X1168400Y499871D02*
G01*
X1168400Y402844D01*
X1168400Y499871D02*
G01*
X1200658Y499871D01*
X1214627Y495300D01*
X1223772Y486155D01*
X1228343Y476757D01*
X1233170Y463042D01*
X1233170Y439928D01*
X1228343Y425957D01*
X1223772Y416813D01*
X1214627Y407670D01*
X1200658Y402844D01*
X1168400Y402844D01*
X1263650Y481329D02*
G01*
X1272793Y486155D01*
X1286509Y499871D01*
X1286509Y402844D01*
X1321815Y476757D02*
G01*
X1321815Y481329D01*
X1326388Y490728D01*
X1330959Y495300D01*
X1340104Y499871D01*
X1358645Y499871D01*
X1367790Y495300D01*
X1372615Y490728D01*
X1377188Y481329D01*
X1377188Y472186D01*
X1372615Y463042D01*
X1363218Y449071D01*
X1316990Y402844D01*
X1381759Y402844D01*
X2197100Y4093971D02*
G01*
X2233929Y3996944D01*
X2271013Y4093971D02*
G01*
X2233929Y3996944D01*
X2301493Y4093971D02*
G01*
X2306065Y4089400D01*
X2310638Y4093971D01*
X2306065Y4098544D01*
X2301493Y4093971D01*
X2306065Y4061713D02*
G01*
X2306065Y3996944D01*
X2341118Y4061713D02*
G01*
X2341118Y3996944D01*
X2341118Y4043171D02*
G01*
X2355088Y4057142D01*
X2364231Y4061713D01*
X2378202Y4061713D01*
X2387345Y4057142D01*
X2391918Y4043171D01*
X2391918Y3996944D01*
X2197100Y537971D02*
G01*
X2197100Y440944D01*
X2197100Y537971D02*
G01*
X2229358Y537971D01*
X2243327Y533400D01*
X2252472Y524255D01*
X2257043Y514857D01*
X2261870Y501142D01*
X2261870Y478028D01*
X2257043Y464057D01*
X2252472Y454913D01*
X2243327Y445770D01*
X2229358Y440944D01*
X2197100Y440944D01*
X2292350Y519429D02*
G01*
X2301493Y524255D01*
X2315209Y537971D01*
X2315209Y440944D01*
X2355088Y537971D02*
G01*
X2405888Y537971D01*
X2378202Y501142D01*
X2391918Y501142D01*
X2401315Y496570D01*
X2405888Y491744D01*
X2410459Y478028D01*
X2410459Y468629D01*
X2405888Y454913D01*
X2396490Y445770D01*
X2382774Y440944D01*
X2368804Y440944D01*
X2355088Y445770D01*
X2350515Y450342D01*
X2345690Y459486D01*
X1237741Y3296157D02*
G01*
X1233170Y3305555D01*
X1223772Y3314700D01*
X1214627Y3319271D01*
X1196086Y3319271D01*
X1186941Y3314700D01*
X1177543Y3305555D01*
X1172972Y3296157D01*
X1168400Y3282442D01*
X1168400Y3259328D01*
X1172972Y3245357D01*
X1177543Y3236213D01*
X1186941Y3227070D01*
X1196086Y3222244D01*
X1214627Y3222244D01*
X1223772Y3227070D01*
X1233170Y3236213D01*
X1237741Y3245357D01*
X1237741Y3259328D01*
X1214627Y3259328D02*
G01*
X1237741Y3259328D01*
X1268222Y3319271D02*
G01*
X1268222Y3222244D01*
X1268222Y3319271D02*
G01*
X1332738Y3222244D01*
X1332738Y3319271D02*
G01*
X1332738Y3222244D01*
X1363218Y3319271D02*
G01*
X1363218Y3222244D01*
X1363218Y3319271D02*
G01*
X1395729Y3319271D01*
X1409445Y3314700D01*
X1418590Y3305555D01*
X1423415Y3296157D01*
X1427988Y3282442D01*
X1427988Y3259328D01*
X1423415Y3245357D01*
X1418590Y3236213D01*
X1409445Y3227070D01*
X1395729Y3222244D01*
X1363218Y3222244D01*
X1168400Y3814571D02*
G01*
X1168400Y3717544D01*
X1168400Y3814571D02*
G01*
X1210056Y3814571D01*
X1223772Y3810000D01*
X1228343Y3805428D01*
X1233170Y3796029D01*
X1233170Y3786886D01*
X1228343Y3777742D01*
X1223772Y3773170D01*
X1210056Y3768344D01*
X1168400Y3768344D01*
X1200658Y3768344D02*
G01*
X1233170Y3717544D01*
X1263650Y3814571D02*
G01*
X1328165Y3717544D01*
X1328165Y3814571D02*
G01*
X1263650Y3717544D01*
X1358645Y3814571D02*
G01*
X1358645Y3717544D01*
X1358645Y3814571D02*
G01*
X1390904Y3814571D01*
X1404874Y3810000D01*
X1414018Y3800855D01*
X1418590Y3791457D01*
X1423415Y3777742D01*
X1423415Y3754628D01*
X1418590Y3740657D01*
X1414018Y3731513D01*
X1404874Y3722370D01*
X1390904Y3717544D01*
X1358645Y3717544D01*
X1168400Y3560571D02*
G01*
X1168400Y3463544D01*
X1168400Y3560571D02*
G01*
X1210056Y3560571D01*
X1223772Y3556000D01*
X1228343Y3551428D01*
X1233170Y3542029D01*
X1233170Y3532886D01*
X1228343Y3523742D01*
X1223772Y3519170D01*
X1210056Y3514344D01*
X1168400Y3514344D01*
X1200658Y3514344D02*
G01*
X1233170Y3463544D01*
X1328165Y3546855D02*
G01*
X1319022Y3556000D01*
X1305052Y3560571D01*
X1286509Y3560571D01*
X1272793Y3556000D01*
X1263650Y3546855D01*
X1263650Y3537457D01*
X1268222Y3528313D01*
X1272793Y3523742D01*
X1281938Y3519170D01*
X1309624Y3509771D01*
X1319022Y3505200D01*
X1323593Y3500628D01*
X1328165Y3491229D01*
X1328165Y3477513D01*
X1319022Y3468370D01*
X1305052Y3463544D01*
X1286509Y3463544D01*
X1272793Y3468370D01*
X1263650Y3477513D01*
X1390904Y3560571D02*
G01*
X1390904Y3463544D01*
X1358645Y3560571D02*
G01*
X1423415Y3560571D01*
X1168400Y3065271D02*
G01*
X1168400Y2968244D01*
X1168400Y3065271D02*
G01*
X1200658Y3065271D01*
X1214627Y3060700D01*
X1223772Y3051555D01*
X1228343Y3042157D01*
X1233170Y3028442D01*
X1233170Y3005328D01*
X1228343Y2991357D01*
X1223772Y2982213D01*
X1214627Y2973070D01*
X1200658Y2968244D01*
X1168400Y2968244D01*
X1268222Y3042157D02*
G01*
X1268222Y3046729D01*
X1272793Y3056128D01*
X1277365Y3060700D01*
X1286509Y3065271D01*
X1305052Y3065271D01*
X1314450Y3060700D01*
X1319022Y3056128D01*
X1323593Y3046729D01*
X1323593Y3037586D01*
X1319022Y3028442D01*
X1309624Y3014471D01*
X1263650Y2968244D01*
X1328165Y2968244D01*
X1168400Y2811271D02*
G01*
X1168400Y2714244D01*
X1168400Y2811271D02*
G01*
X1200658Y2811271D01*
X1214627Y2806700D01*
X1223772Y2797555D01*
X1228343Y2788157D01*
X1233170Y2774442D01*
X1233170Y2751328D01*
X1228343Y2737357D01*
X1223772Y2728213D01*
X1214627Y2719070D01*
X1200658Y2714244D01*
X1168400Y2714244D01*
X1272793Y2811271D02*
G01*
X1323593Y2811271D01*
X1295908Y2774442D01*
X1309624Y2774442D01*
X1319022Y2769870D01*
X1323593Y2765044D01*
X1328165Y2751328D01*
X1328165Y2741929D01*
X1323593Y2728213D01*
X1314450Y2719070D01*
X1300479Y2714244D01*
X1286509Y2714244D01*
X1272793Y2719070D01*
X1268222Y2723642D01*
X1263650Y2732786D01*
X1168400Y2557271D02*
G01*
X1168400Y2460244D01*
X1168400Y2557271D02*
G01*
X1200658Y2557271D01*
X1214627Y2552700D01*
X1223772Y2543555D01*
X1228343Y2534157D01*
X1233170Y2520442D01*
X1233170Y2497328D01*
X1228343Y2483357D01*
X1223772Y2474213D01*
X1214627Y2465070D01*
X1200658Y2460244D01*
X1168400Y2460244D01*
X1309624Y2557271D02*
G01*
X1263650Y2492755D01*
X1332738Y2492755D01*
X1309624Y2557271D02*
G01*
X1309624Y2460244D01*
X1168400Y2303271D02*
G01*
X1168400Y2206244D01*
X1168400Y2303271D02*
G01*
X1200658Y2303271D01*
X1214627Y2298700D01*
X1223772Y2289555D01*
X1228343Y2280157D01*
X1233170Y2266442D01*
X1233170Y2243328D01*
X1228343Y2229357D01*
X1223772Y2220213D01*
X1214627Y2211070D01*
X1200658Y2206244D01*
X1168400Y2206244D01*
X1319022Y2303271D02*
G01*
X1272793Y2303271D01*
X1268222Y2261870D01*
X1272793Y2266442D01*
X1286509Y2271013D01*
X1300479Y2271013D01*
X1314450Y2266442D01*
X1323593Y2257044D01*
X1328165Y2243328D01*
X1328165Y2233929D01*
X1323593Y2220213D01*
X1314450Y2211070D01*
X1300479Y2206244D01*
X1286509Y2206244D01*
X1272793Y2211070D01*
X1268222Y2215642D01*
X1263650Y2224786D01*
X1168400Y2049271D02*
G01*
X1168400Y1952244D01*
X1168400Y2049271D02*
G01*
X1200658Y2049271D01*
X1214627Y2044700D01*
X1223772Y2035555D01*
X1228343Y2026157D01*
X1233170Y2012442D01*
X1233170Y1989328D01*
X1228343Y1975357D01*
X1223772Y1966213D01*
X1214627Y1957070D01*
X1200658Y1952244D01*
X1168400Y1952244D01*
X1319022Y2035555D02*
G01*
X1314450Y2044700D01*
X1300479Y2049271D01*
X1291336Y2049271D01*
X1277365Y2044700D01*
X1268222Y2030729D01*
X1263650Y2007870D01*
X1263650Y1984755D01*
X1268222Y1966213D01*
X1277365Y1957070D01*
X1291336Y1952244D01*
X1295908Y1952244D01*
X1309624Y1957070D01*
X1319022Y1966213D01*
X1323593Y1979929D01*
X1323593Y1984755D01*
X1319022Y1998471D01*
X1309624Y2007870D01*
X1295908Y2012442D01*
X1291336Y2012442D01*
X1277365Y2007870D01*
X1268222Y1998471D01*
X1263650Y1984755D01*
X1168400Y1795271D02*
G01*
X1168400Y1698244D01*
X1168400Y1795271D02*
G01*
X1200658Y1795271D01*
X1214627Y1790700D01*
X1223772Y1781555D01*
X1228343Y1772157D01*
X1233170Y1758442D01*
X1233170Y1735328D01*
X1228343Y1721357D01*
X1223772Y1712213D01*
X1214627Y1703070D01*
X1200658Y1698244D01*
X1168400Y1698244D01*
X1328165Y1795271D02*
G01*
X1281938Y1698244D01*
X1263650Y1795271D02*
G01*
X1328165Y1795271D01*
X1168400Y1553971D02*
G01*
X1168400Y1456944D01*
X1168400Y1553971D02*
G01*
X1200658Y1553971D01*
X1214627Y1549400D01*
X1223772Y1540255D01*
X1228343Y1530857D01*
X1233170Y1517142D01*
X1233170Y1494028D01*
X1228343Y1480057D01*
X1223772Y1470913D01*
X1214627Y1461770D01*
X1200658Y1456944D01*
X1168400Y1456944D01*
X1286509Y1553971D02*
G01*
X1272793Y1549400D01*
X1268222Y1540255D01*
X1268222Y1530857D01*
X1272793Y1521713D01*
X1281938Y1517142D01*
X1300479Y1512570D01*
X1314450Y1507744D01*
X1323593Y1498600D01*
X1328165Y1489455D01*
X1328165Y1475486D01*
X1323593Y1466342D01*
X1319022Y1461770D01*
X1305052Y1456944D01*
X1286509Y1456944D01*
X1272793Y1461770D01*
X1268222Y1466342D01*
X1263650Y1475486D01*
X1263650Y1489455D01*
X1268222Y1498600D01*
X1277365Y1507744D01*
X1291336Y1512570D01*
X1309624Y1517142D01*
X1319022Y1521713D01*
X1323593Y1530857D01*
X1323593Y1540255D01*
X1319022Y1549400D01*
X1305052Y1553971D01*
X1286509Y1553971D01*
X1168400Y1287271D02*
G01*
X1168400Y1190244D01*
X1168400Y1287271D02*
G01*
X1200658Y1287271D01*
X1214627Y1282700D01*
X1223772Y1273555D01*
X1228343Y1264157D01*
X1233170Y1250442D01*
X1233170Y1227328D01*
X1228343Y1213357D01*
X1223772Y1204213D01*
X1214627Y1195070D01*
X1200658Y1190244D01*
X1168400Y1190244D01*
X1323593Y1255013D02*
G01*
X1319022Y1241044D01*
X1309624Y1231900D01*
X1295908Y1227328D01*
X1291336Y1227328D01*
X1277365Y1231900D01*
X1268222Y1241044D01*
X1263650Y1255013D01*
X1263650Y1259586D01*
X1268222Y1273555D01*
X1277365Y1282700D01*
X1291336Y1287271D01*
X1295908Y1287271D01*
X1309624Y1282700D01*
X1319022Y1273555D01*
X1323593Y1255013D01*
X1323593Y1231900D01*
X1319022Y1208786D01*
X1309624Y1195070D01*
X1295908Y1190244D01*
X1286509Y1190244D01*
X1272793Y1195070D01*
X1268222Y1204213D01*
X1168400Y1033271D02*
G01*
X1168400Y936244D01*
X1168400Y1033271D02*
G01*
X1200658Y1033271D01*
X1214627Y1028700D01*
X1223772Y1019555D01*
X1228343Y1010157D01*
X1233170Y996442D01*
X1233170Y973328D01*
X1228343Y959357D01*
X1223772Y950213D01*
X1214627Y941070D01*
X1200658Y936244D01*
X1168400Y936244D01*
X1263650Y1014729D02*
G01*
X1272793Y1019555D01*
X1286509Y1033271D01*
X1286509Y936244D01*
X1344929Y1033271D02*
G01*
X1330959Y1028700D01*
X1321815Y1014729D01*
X1316990Y991870D01*
X1316990Y977900D01*
X1321815Y954786D01*
X1330959Y941070D01*
X1344929Y936244D01*
X1354074Y936244D01*
X1367790Y941070D01*
X1377188Y954786D01*
X1381759Y977900D01*
X1381759Y991870D01*
X1377188Y1014729D01*
X1367790Y1028700D01*
X1354074Y1033271D01*
X1344929Y1033271D01*
X1168400Y779271D02*
G01*
X1168400Y682244D01*
X1168400Y779271D02*
G01*
X1200658Y779271D01*
X1214627Y774700D01*
X1223772Y765555D01*
X1228343Y756157D01*
X1233170Y742442D01*
X1233170Y719328D01*
X1228343Y705357D01*
X1223772Y696213D01*
X1214627Y687070D01*
X1200658Y682244D01*
X1168400Y682244D01*
X1263650Y760729D02*
G01*
X1272793Y765555D01*
X1286509Y779271D01*
X1286509Y682244D01*
X1316990Y760729D02*
G01*
X1326388Y765555D01*
X1340104Y779271D01*
X1340104Y682244D01*
X2142743Y791971D02*
G01*
X2193543Y791971D01*
X2165858Y755142D01*
X2179827Y755142D01*
X2188972Y750570D01*
X2193543Y745744D01*
X2198370Y732028D01*
X2198370Y722629D01*
X2193543Y708913D01*
X2184400Y699770D01*
X2170429Y694944D01*
X2156713Y694944D01*
X2142743Y699770D01*
X2138172Y704342D01*
X2133600Y713486D01*
X2228850Y791971D02*
G01*
X2265679Y694944D01*
X2302509Y791971D02*
G01*
X2265679Y694944D01*
X2342388Y791971D02*
G01*
X2393188Y791971D01*
X2365502Y755142D01*
X2379218Y755142D01*
X2388615Y750570D01*
X2393188Y745744D01*
X2397759Y732028D01*
X2397759Y722629D01*
X2393188Y708913D01*
X2383790Y699770D01*
X2370074Y694944D01*
X2356104Y694944D01*
X2342388Y699770D01*
X2337815Y704342D01*
X2332990Y713486D01*
X2171700Y1045971D02*
G01*
X2171700Y948944D01*
X2171700Y1045971D02*
G01*
X2213356Y1045971D01*
X2227072Y1041400D01*
X2231643Y1036828D01*
X2236470Y1027429D01*
X2236470Y1018286D01*
X2231643Y1009142D01*
X2227072Y1004570D01*
X2213356Y999744D01*
X2171700Y999744D01*
X2203958Y999744D02*
G01*
X2236470Y948944D01*
X2266950Y1045971D02*
G01*
X2266950Y948944D01*
X2266950Y1045971D02*
G01*
X2326893Y1045971D01*
X2266950Y999744D02*
G01*
X2303779Y999744D01*
X2266950Y948944D02*
G01*
X2326893Y948944D01*
X2357374Y1045971D02*
G01*
X2357374Y948944D01*
X2357374Y1045971D02*
G01*
X2417318Y1045971D01*
X2357374Y999744D02*
G01*
X2394204Y999744D01*
X2272029Y1299971D02*
G01*
X2235200Y1202944D01*
X2272029Y1299971D02*
G01*
X2309113Y1202944D01*
X2249170Y1235455D02*
G01*
X2295143Y1235455D01*
X2367279Y1299971D02*
G01*
X2353309Y1295400D01*
X2344165Y1281429D01*
X2339593Y1258570D01*
X2339593Y1244600D01*
X2344165Y1221486D01*
X2353309Y1207770D01*
X2367279Y1202944D01*
X2376424Y1202944D01*
X2390393Y1207770D01*
X2399538Y1221486D01*
X2404109Y1244600D01*
X2404109Y1258570D01*
X2399538Y1281429D01*
X2390393Y1295400D01*
X2376424Y1299971D01*
X2367279Y1299971D01*
X2297429Y1553971D02*
G01*
X2260600Y1456944D01*
X2297429Y1553971D02*
G01*
X2334513Y1456944D01*
X2274570Y1489455D02*
G01*
X2320543Y1489455D01*
X2364993Y1535429D02*
G01*
X2374138Y1540255D01*
X2388108Y1553971D01*
X2388108Y1456944D01*
X2272029Y1807971D02*
G01*
X2235200Y1710944D01*
X2272029Y1807971D02*
G01*
X2309113Y1710944D01*
X2249170Y1743455D02*
G01*
X2295143Y1743455D01*
X2344165Y1784857D02*
G01*
X2344165Y1789429D01*
X2348738Y1798828D01*
X2353309Y1803400D01*
X2362708Y1807971D01*
X2381250Y1807971D01*
X2390393Y1803400D01*
X2394965Y1798828D01*
X2399538Y1789429D01*
X2399538Y1780286D01*
X2394965Y1771142D01*
X2385822Y1757171D01*
X2339593Y1710944D01*
X2404109Y1710944D01*
X2272029Y2049271D02*
G01*
X2235200Y1952244D01*
X2272029Y2049271D02*
G01*
X2309113Y1952244D01*
X2249170Y1984755D02*
G01*
X2295143Y1984755D01*
X2348738Y2049271D02*
G01*
X2399538Y2049271D01*
X2371852Y2012442D01*
X2385822Y2012442D01*
X2394965Y2007870D01*
X2399538Y2003044D01*
X2404109Y1989328D01*
X2404109Y1979929D01*
X2399538Y1966213D01*
X2390393Y1957070D01*
X2376424Y1952244D01*
X2362708Y1952244D01*
X2348738Y1957070D01*
X2344165Y1961642D01*
X2339593Y1970786D01*
X2272029Y2315971D02*
G01*
X2235200Y2218944D01*
X2272029Y2315971D02*
G01*
X2309113Y2218944D01*
X2249170Y2251455D02*
G01*
X2295143Y2251455D01*
X2385822Y2315971D02*
G01*
X2339593Y2251455D01*
X2408936Y2251455D01*
X2385822Y2315971D02*
G01*
X2385822Y2218944D01*
X2272029Y2569971D02*
G01*
X2235200Y2472944D01*
X2272029Y2569971D02*
G01*
X2309113Y2472944D01*
X2249170Y2505455D02*
G01*
X2295143Y2505455D01*
X2394965Y2569971D02*
G01*
X2348738Y2569971D01*
X2344165Y2528570D01*
X2348738Y2533142D01*
X2362708Y2537713D01*
X2376424Y2537713D01*
X2390393Y2533142D01*
X2399538Y2523744D01*
X2404109Y2510028D01*
X2404109Y2500629D01*
X2399538Y2486913D01*
X2390393Y2477770D01*
X2376424Y2472944D01*
X2362708Y2472944D01*
X2348738Y2477770D01*
X2344165Y2482342D01*
X2339593Y2491486D01*
X2284729Y2823971D02*
G01*
X2247900Y2726944D01*
X2284729Y2823971D02*
G01*
X2321813Y2726944D01*
X2261870Y2759455D02*
G01*
X2307843Y2759455D01*
X2407665Y2810255D02*
G01*
X2403093Y2819400D01*
X2389124Y2823971D01*
X2379979Y2823971D01*
X2366009Y2819400D01*
X2356865Y2805429D01*
X2352293Y2782570D01*
X2352293Y2759455D01*
X2356865Y2740913D01*
X2366009Y2731770D01*
X2379979Y2726944D01*
X2384552Y2726944D01*
X2398522Y2731770D01*
X2407665Y2740913D01*
X2412238Y2754629D01*
X2412238Y2759455D01*
X2407665Y2773171D01*
X2398522Y2782570D01*
X2384552Y2787142D01*
X2379979Y2787142D01*
X2366009Y2782570D01*
X2356865Y2773171D01*
X2352293Y2759455D01*
X2284729Y3077971D02*
G01*
X2247900Y2980944D01*
X2284729Y3077971D02*
G01*
X2321813Y2980944D01*
X2261870Y3013455D02*
G01*
X2307843Y3013455D01*
X2416809Y3077971D02*
G01*
X2370836Y2980944D01*
X2352293Y3077971D02*
G01*
X2416809Y3077971D01*
X2171700Y3585971D02*
G01*
X2171700Y3488944D01*
X2171700Y3585971D02*
G01*
X2213356Y3585971D01*
X2227072Y3581400D01*
X2231643Y3576828D01*
X2236470Y3567429D01*
X2236470Y3558286D01*
X2231643Y3549142D01*
X2227072Y3544570D01*
X2213356Y3539744D01*
X2171700Y3539744D01*
X2203958Y3539744D02*
G01*
X2236470Y3488944D01*
X2331465Y3572255D02*
G01*
X2322322Y3581400D01*
X2308352Y3585971D01*
X2289809Y3585971D01*
X2276093Y3581400D01*
X2266950Y3572255D01*
X2266950Y3562857D01*
X2271522Y3553713D01*
X2276093Y3549142D01*
X2285238Y3544570D01*
X2312924Y3535171D01*
X2322322Y3530600D01*
X2326893Y3526028D01*
X2331465Y3516629D01*
X2331465Y3502913D01*
X2322322Y3493770D01*
X2308352Y3488944D01*
X2289809Y3488944D01*
X2276093Y3493770D01*
X2266950Y3502913D01*
X2394204Y3585971D02*
G01*
X2394204Y3488944D01*
X2361945Y3585971D02*
G01*
X2426715Y3585971D01*
X1689100Y6288278D02*
G01*
X1689100Y6094476D01*
X1689100Y6288278D02*
G01*
X1809241Y6288278D01*
X1689100Y6196076D02*
G01*
X1763013Y6196076D01*
X1870202Y6288278D02*
G01*
X1870202Y6094476D01*
X1870202Y6288278D02*
G01*
X1953259Y6288278D01*
X1980945Y6279134D01*
X1990090Y6269989D01*
X1999488Y6251447D01*
X1999488Y6232905D01*
X1990090Y6214363D01*
X1980945Y6205220D01*
X1953259Y6196076D01*
X1870202Y6196076D01*
X1934718Y6196076D02*
G01*
X1999488Y6094476D01*
X2060447Y6288278D02*
G01*
X2060447Y6094476D01*
X2060447Y6288278D02*
G01*
X2180590Y6288278D01*
X2060447Y6196076D02*
G01*
X2134361Y6196076D01*
X2060447Y6094476D02*
G01*
X2180590Y6094476D01*
X2241550Y6288278D02*
G01*
X2241550Y6094476D01*
X2241550Y6288278D02*
G01*
X2306065Y6288278D01*
X2333752Y6279134D01*
X2352293Y6260592D01*
X2361438Y6242050D01*
X2370836Y6214363D01*
X2370836Y6168389D01*
X2361438Y6140450D01*
X2352293Y6122162D01*
X2333752Y6103620D01*
X2306065Y6094476D01*
X2241550Y6094476D01*
X2574036Y6223762D02*
G01*
X2629408Y6094476D01*
X2684779Y6223762D02*
G01*
X2629408Y6094476D01*
X2745740Y6251447D02*
G01*
X2764281Y6260592D01*
X2791968Y6288278D01*
X2791968Y6094476D01*
D11*
X215900Y191515D02*
G01*
X215900Y82550D01*
X215900Y191515D02*
G01*
X262636Y191515D01*
X278129Y186436D01*
X283463Y181102D01*
X288543Y170687D01*
X288543Y155194D01*
X283463Y144779D01*
X278129Y139700D01*
X262636Y134365D01*
X215900Y134365D01*
X322834Y191515D02*
G01*
X348995Y82550D01*
X374904Y191515D02*
G01*
X348995Y82550D01*
X374904Y191515D02*
G01*
X400811Y82550D01*
X426720Y191515D02*
G01*
X400811Y82550D01*
X461009Y191515D02*
G01*
X461009Y82550D01*
X461009Y191515D02*
G01*
X508000Y191515D01*
X523493Y186436D01*
X528574Y181102D01*
X533908Y170687D01*
X533908Y160273D01*
X528574Y149860D01*
X523493Y144779D01*
X508000Y139700D01*
X461009Y139700D01*
X497586Y139700D02*
G01*
X533908Y82550D01*
X1778000Y5208015D02*
G01*
X1778000Y5099050D01*
X1778000Y5208015D02*
G01*
X1850643Y5099050D01*
X1850643Y5208015D02*
G01*
X1850643Y5099050D01*
X1884934Y5208015D02*
G01*
X1884934Y5099050D01*
X1884934Y5208015D02*
G01*
X1931670Y5208015D01*
X1947418Y5202936D01*
X1952497Y5197602D01*
X1957831Y5187187D01*
X1957831Y5176773D01*
X1952497Y5166360D01*
X1947418Y5161279D01*
X1931670Y5156200D01*
X1884934Y5156200D01*
X1921509Y5156200D02*
G01*
X1957831Y5099050D01*
X1992122Y5208015D02*
G01*
X1992122Y5099050D01*
X1992122Y5208015D02*
G01*
X2059686Y5208015D01*
X1992122Y5156200D02*
G01*
X2033524Y5156200D01*
X2099056Y5182107D02*
G01*
X2099056Y5187187D01*
X2104390Y5197602D01*
X2109470Y5202936D01*
X2119884Y5208015D01*
X2140711Y5208015D01*
X2151125Y5202936D01*
X2156206Y5197602D01*
X2161540Y5187187D01*
X2161540Y5176773D01*
X2156206Y5166360D01*
X2145791Y5150865D01*
X2093975Y5099050D01*
X2166620Y5099050D01*
X2252979Y5208015D02*
G01*
X2200909Y5135371D01*
X2278888Y5135371D01*
X2252979Y5208015D02*
G01*
X2252979Y5099050D01*
X2313177Y5208015D02*
G01*
X2313177Y5099050D01*
X2313177Y5099050D02*
G01*
X2375408Y5099050D01*
X2440940Y5208015D02*
G01*
X2425445Y5202936D01*
X2415031Y5187187D01*
X2409697Y5161279D01*
X2409697Y5145786D01*
X2415031Y5119623D01*
X2425445Y5104129D01*
X2440940Y5099050D01*
X2451354Y5099050D01*
X2466847Y5104129D01*
X2477261Y5119623D01*
X2482595Y5145786D01*
X2482595Y5161279D01*
X2477261Y5187187D01*
X2466847Y5202936D01*
X2451354Y5208015D01*
X2440940Y5208015D01*
X2516886Y5187187D02*
G01*
X2527300Y5192521D01*
X2542793Y5208015D01*
X2542793Y5099050D01*
X1129284Y4572000D02*
G01*
X1238250Y4572000D01*
X1129284Y4572000D02*
G01*
X1238250Y4613655D01*
X1129284Y4655057D02*
G01*
X1238250Y4613655D01*
X1129284Y4655057D02*
G01*
X1238250Y4655057D01*
X1129284Y4689347D02*
G01*
X1238250Y4689347D01*
X1129284Y4689347D02*
G01*
X1129284Y4736084D01*
X1134363Y4751831D01*
X1139697Y4756912D01*
X1150111Y4762245D01*
X1165606Y4762245D01*
X1176020Y4756912D01*
X1181100Y4751831D01*
X1186434Y4736084D01*
X1186434Y4689347D01*
X1129284Y4796536D02*
G01*
X1207261Y4796536D01*
X1222756Y4801615D01*
X1233170Y4812029D01*
X1238250Y4827523D01*
X1238250Y4837937D01*
X1233170Y4853686D01*
X1222756Y4864100D01*
X1207261Y4869179D01*
X1129284Y4869179D01*
X1144777Y4965700D02*
G01*
X1134363Y4960620D01*
X1129284Y4945126D01*
X1129284Y4934712D01*
X1134363Y4918963D01*
X1150111Y4908550D01*
X1176020Y4903470D01*
X1201927Y4903470D01*
X1222756Y4908550D01*
X1233170Y4918963D01*
X1238250Y4934712D01*
X1238250Y4939792D01*
X1233170Y4955539D01*
X1222756Y4965700D01*
X1207261Y4971034D01*
X1201927Y4971034D01*
X1186434Y4965700D01*
X1176020Y4955539D01*
X1170940Y4939792D01*
X1170940Y4934712D01*
X1176020Y4918963D01*
X1186434Y4908550D01*
X1201927Y4903470D01*
X1129284Y5036565D02*
G01*
X1134363Y5020818D01*
X1150111Y5010404D01*
X1176020Y5005323D01*
X1191513Y5005323D01*
X1217675Y5010404D01*
X1233170Y5020818D01*
X1238250Y5036565D01*
X1238250Y5046979D01*
X1233170Y5062473D01*
X1217675Y5072887D01*
X1191513Y5077968D01*
X1176020Y5077968D01*
X1150111Y5072887D01*
X1134363Y5062473D01*
X1129284Y5046979D01*
X1129284Y5036565D01*
X1129284Y5174742D02*
G01*
X1129284Y5122671D01*
X1176020Y5117592D01*
X1170940Y5122671D01*
X1165606Y5138420D01*
X1165606Y5153913D01*
X1170940Y5169407D01*
X1181100Y5179821D01*
X1196847Y5185155D01*
X1207261Y5185155D01*
X1222756Y5179821D01*
X1233170Y5169407D01*
X1238250Y5153913D01*
X1238250Y5138420D01*
X1233170Y5122671D01*
X1228090Y5117592D01*
X1217675Y5112257D01*
X1129284Y5250434D02*
G01*
X1134363Y5234939D01*
X1150111Y5224526D01*
X1176020Y5219445D01*
X1191513Y5219445D01*
X1217675Y5224526D01*
X1233170Y5234939D01*
X1238250Y5250434D01*
X1238250Y5260847D01*
X1233170Y5276595D01*
X1217675Y5287010D01*
X1191513Y5292089D01*
X1176020Y5292089D01*
X1150111Y5287010D01*
X1134363Y5276595D01*
X1129284Y5260847D01*
X1129284Y5250434D01*
X2742184Y889000D02*
G01*
X2851150Y889000D01*
X2742184Y889000D02*
G01*
X2742184Y935736D01*
X2747263Y951229D01*
X2752597Y956563D01*
X2763011Y961644D01*
X2778506Y961644D01*
X2788920Y956563D01*
X2794000Y951229D01*
X2799334Y935736D01*
X2799334Y889000D01*
X2768091Y1073912D02*
G01*
X2757677Y1068831D01*
X2747263Y1058418D01*
X2742184Y1048004D01*
X2742184Y1027176D01*
X2747263Y1016762D01*
X2757677Y1006347D01*
X2768091Y1001268D01*
X2783840Y995934D01*
X2809747Y995934D01*
X2825241Y1001268D01*
X2835656Y1006347D01*
X2846070Y1016762D01*
X2851150Y1027176D01*
X2851150Y1048004D01*
X2846070Y1058418D01*
X2835656Y1068831D01*
X2825241Y1073912D01*
X2742184Y1149857D02*
G01*
X2851150Y1108202D01*
X2742184Y1149857D02*
G01*
X2851150Y1191260D01*
X2814827Y1123950D02*
G01*
X2814827Y1175765D01*
X2778506Y1293113D02*
G01*
X2794000Y1288034D01*
X2804413Y1277620D01*
X2809747Y1262126D01*
X2809747Y1256792D01*
X2804413Y1241297D01*
X2794000Y1230884D01*
X2778506Y1225550D01*
X2773425Y1225550D01*
X2757677Y1230884D01*
X2747263Y1241297D01*
X2742184Y1256792D01*
X2742184Y1262126D01*
X2747263Y1277620D01*
X2757677Y1288034D01*
X2778506Y1293113D01*
X2804413Y1293113D01*
X2830575Y1288034D01*
X2846070Y1277620D01*
X2851150Y1262126D01*
X2851150Y1251712D01*
X2846070Y1235963D01*
X2835656Y1230884D01*
X2757677Y1389887D02*
G01*
X2747263Y1384554D01*
X2742184Y1369060D01*
X2742184Y1358645D01*
X2747263Y1343152D01*
X2763011Y1332737D01*
X2788920Y1327404D01*
X2814827Y1327404D01*
X2835656Y1332737D01*
X2846070Y1343152D01*
X2851150Y1358645D01*
X2851150Y1363979D01*
X2846070Y1379473D01*
X2835656Y1389887D01*
X2820161Y1394968D01*
X2814827Y1394968D01*
X2799334Y1389887D01*
X2788920Y1379473D01*
X2783840Y1363979D01*
X2783840Y1358645D01*
X2788920Y1343152D01*
X2799334Y1332737D01*
X2814827Y1327404D01*
X2742184Y1455420D02*
G01*
X2747263Y1439671D01*
X2757677Y1434592D01*
X2768091Y1434592D01*
X2778506Y1439671D01*
X2783840Y1450086D01*
X2788920Y1470913D01*
X2794000Y1486407D01*
X2804413Y1496821D01*
X2814827Y1502155D01*
X2830575Y1502155D01*
X2840990Y1496821D01*
X2846070Y1491742D01*
X2851150Y1475994D01*
X2851150Y1455420D01*
X2846070Y1439671D01*
X2840990Y1434592D01*
X2830575Y1429257D01*
X2814827Y1429257D01*
X2804413Y1434592D01*
X2794000Y1445005D01*
X2788920Y1460500D01*
X2783840Y1481328D01*
X2778506Y1491742D01*
X2768091Y1496821D01*
X2757677Y1496821D01*
X2747263Y1491742D01*
X2742184Y1475994D01*
X2742184Y1455420D01*
X2742184Y1598676D02*
G01*
X2742184Y1546860D01*
X2788920Y1541526D01*
X2783840Y1546860D01*
X2778506Y1562354D01*
X2778506Y1577847D01*
X2783840Y1593595D01*
X2794000Y1604010D01*
X2809747Y1609089D01*
X2820161Y1609089D01*
X2835656Y1604010D01*
X2846070Y1593595D01*
X2851150Y1577847D01*
X2851150Y1562354D01*
X2846070Y1546860D01*
X2840990Y1541526D01*
X2830575Y1536445D01*
D12*
X889000Y101600D02*
G01*
X2667000Y101600D01*
X2667000Y4419600D02*
G01*
X889000Y4419600D01*
X889000Y4419600D02*
G01*
X889000Y101600D01*
X2667000Y101600D02*
G01*
X2667000Y4419600D01*
D10*
X317500Y1892300D02*
G01*
X127000Y1892300D01*
X127000Y1638300D01*
X889000Y1638300D01*
X889000Y1892300D01*
D13*
X889000Y1892300D02*
G01*
X317500Y1892300D01*
D10*
X317500Y1638300D02*
G01*
X127000Y1638300D01*
X127000Y1384300D01*
X889000Y1384300D01*
X889000Y1638300D01*
D13*
X889000Y1638300D02*
G01*
X317500Y1638300D01*
D10*
X2921000Y609600D02*
G01*
X2667000Y609600D01*
X2667000Y863600D01*
X2921000Y863600D01*
X2921000Y673100D01*
D13*
X2921000Y609600D02*
G01*
X2921000Y673100D01*
D10*
X889000Y2387600D02*
G01*
X635000Y2387600D01*
X635000Y2641600D01*
X889000Y2641600D01*
X889000Y2451100D01*
D13*
X889000Y2387600D02*
G01*
X889000Y2451100D01*
X2921000Y3657600D02*
G01*
X2921000Y3975100D01*
D10*
X2921000Y3657600D02*
G01*
X2667000Y3657600D01*
X2667000Y4165600D01*
X2921000Y4165600D01*
X2921000Y3975100D01*
X2921000Y3467100D02*
G01*
X2921000Y3657600D01*
X2667000Y3657600D01*
X2667000Y2895600D01*
X2921000Y2895600D01*
D13*
X2921000Y2895600D02*
G01*
X2921000Y3467100D01*
D12*
X51798Y228600D02*
G01*
X51800Y1244600D01*
X51798Y1244600D02*
G01*
X831799Y1244600D01*
X831799Y228600D02*
G01*
X51800Y228600D01*
X831799Y1244600D02*
G01*
X831799Y228600D01*
X647700Y228600D02*
G01*
X647700Y1244600D01*
X144134Y228600D02*
G01*
X144134Y1244600D01*
X606958Y228600D02*
G01*
X606958Y200558D01*
X584200Y177800D01*
X685800Y177800D01*
X660400Y203200D01*
X660400Y215900D01*
X596900Y1216558D02*
G01*
X574141Y1193800D01*
X675741Y1193800D01*
X650341Y1219200D01*
X648456Y1244600D01*
X599541Y1219200D02*
G01*
X597656Y1244600D01*
D10*
X635000Y2895600D02*
G01*
X889000Y2895600D01*
X889000Y2644139D01*
X127000Y2644139D01*
X127000Y2895600D01*
X635000Y2895600D01*
X635000Y2387600D02*
G01*
X889000Y2387600D01*
X889000Y2136139D01*
X127000Y2136139D01*
X127000Y2387600D01*
X635000Y2387600D01*
X635000Y2133600D02*
G01*
X889000Y2133600D01*
X889000Y1882139D01*
X127000Y1882139D01*
X127000Y2133600D01*
X635000Y2133600D01*
X1651000Y5054600D02*
G01*
X1651000Y4546600D01*
X2667000Y4546600D01*
X2667000Y5054600D01*
X1651000Y5054600D01*
X1282700Y6578600D02*
G01*
X1536700Y6578600D01*
X1536700Y4546600D01*
X1282700Y4546600D01*
X1282700Y4737100D01*
D13*
X1282700Y6578600D02*
G01*
X1282700Y4737100D01*
D10*
X2921000Y2705100D02*
G01*
X2921000Y2895600D01*
X2667000Y2895600D01*
X2667000Y1625600D01*
X2921000Y1625600D01*
D13*
X2921000Y1625600D02*
G01*
X2921000Y2705100D01*
M02*
