G04 Layer: BottomLayer*
G04 EasyEDA v6.5.20, 2022-10-25 13:43:38*
G04 7ab05346c3184fb1b1d82cee0c39fc96,2b06a704b0b744f5a7d1a44ad6c904bc,10*
G04 Gerber Generator version 0.2*
G04 Scale: 100 percent, Rotated: No, Reflected: No *
G04 Dimensions in millimeters *
G04 leading zeros omitted , absolute positions ,4 integer and 5 decimal *
%FSLAX45Y45*%
%MOMM*%

%ADD10C,0.2540*%
%ADD11C,1.5748*%
%ADD12R,1.5748X1.5748*%
%ADD13R,1.5748X1.7000*%
%ADD14C,1.7000*%
%ADD15C,2.5000*%
%ADD16R,1.7780X1.7780*%
%ADD17C,1.7780*%

%LPD*%
D10*
X431800Y990600D02*
G01*
X431800Y787400D01*
X1079500Y139700D01*
X2374900Y139700D01*
X2667000Y431800D01*
X2667000Y2628900D01*
X2794000Y2755900D01*
X2794000Y2768600D01*
X1016000Y1244600D02*
G01*
X2032000Y2260600D01*
X2032000Y4673600D01*
X1016000Y457200D02*
G01*
X2108200Y1549400D01*
X2108200Y4241800D01*
X2540000Y4673600D01*
X2540000Y3784600D02*
G01*
X2667000Y3911600D01*
X2667000Y4978400D01*
X2590800Y5054600D01*
X1536700Y5054600D01*
X1409700Y4927600D01*
X2781300Y3530600D02*
G01*
X2667000Y3416300D01*
X2667000Y2882900D01*
X2781300Y2768600D01*
X2794000Y2006600D02*
G01*
X2921000Y2133600D01*
X2921000Y3149600D01*
X2794000Y3276600D01*
X1409700Y4927600D02*
G01*
X1663700Y4673600D01*
X1778000Y4673600D01*
D11*
G01*
X762000Y1765300D03*
G01*
X508000Y1765300D03*
D12*
G01*
X254000Y1765300D03*
D11*
G01*
X762000Y1511300D03*
G01*
X508000Y1511300D03*
D12*
G01*
X254000Y1511300D03*
G01*
X2794000Y736600D03*
G01*
X762000Y2514600D03*
D13*
G01*
X2794000Y4038600D03*
D14*
G01*
X2794000Y3784600D03*
D11*
G01*
X2794000Y3022600D03*
G01*
X2794000Y3276600D03*
D12*
G01*
X2794000Y3530600D03*
D15*
G01*
X431800Y482600D03*
G01*
X431800Y990600D03*
D12*
G01*
X254000Y2768600D03*
D11*
G01*
X508000Y2768600D03*
G01*
X762000Y2768600D03*
D12*
G01*
X254000Y2260600D03*
D11*
G01*
X508000Y2260600D03*
G01*
X762000Y2260600D03*
D12*
G01*
X254000Y2006600D03*
D11*
G01*
X508000Y2006600D03*
G01*
X762000Y2006600D03*
D12*
G01*
X1778000Y4673600D03*
D11*
G01*
X1778000Y4927600D03*
G01*
X2032000Y4673600D03*
G01*
X2032000Y4927600D03*
G01*
X2286000Y4673600D03*
G01*
X2286000Y4927600D03*
G01*
X2540000Y4673600D03*
G01*
X2540000Y4927600D03*
D12*
G01*
X1409700Y4673600D03*
D11*
G01*
X1409700Y4927600D03*
G01*
X1409700Y5181600D03*
G01*
X1409700Y5435600D03*
G01*
X1409700Y5689600D03*
G01*
X1409700Y5943600D03*
G01*
X1409700Y6197600D03*
G01*
X1409700Y6451600D03*
G01*
X2794000Y1752600D03*
G01*
X2794000Y2006600D03*
G01*
X2794000Y2260600D03*
G01*
X2794000Y2514600D03*
D12*
G01*
X2794000Y2768600D03*
D16*
G01*
X1016000Y4038600D03*
D17*
G01*
X1016000Y3784600D03*
G01*
X1016000Y3530600D03*
G01*
X1016000Y3276600D03*
G01*
X1016000Y3022600D03*
G01*
X1016000Y2768600D03*
G01*
X1016000Y2514600D03*
G01*
X1016000Y2260600D03*
G01*
X1016000Y2006600D03*
G01*
X1016000Y1752600D03*
G01*
X1016000Y1498600D03*
G01*
X1016000Y1244600D03*
G01*
X1016000Y990600D03*
G01*
X1016000Y736600D03*
G01*
X1016000Y457200D03*
G01*
X2540000Y4038600D03*
G01*
X2540000Y3784600D03*
G01*
X2540000Y3530600D03*
G01*
X2540000Y3276600D03*
G01*
X2540000Y3022600D03*
G01*
X2540000Y2768600D03*
G01*
X2540000Y2514600D03*
G01*
X2540000Y2260600D03*
G01*
X2540000Y2006600D03*
G01*
X2540000Y1752600D03*
G01*
X2540000Y1498600D03*
G01*
X2540000Y1244600D03*
G01*
X2540000Y990600D03*
G01*
X2540000Y736600D03*
G01*
X2540000Y482600D03*
M02*
